<svg width="138" height="47" viewBox="0 0 138 47" fill="none" xmlns="http://www.w3.org/2000/svg">
<path d="M86.0537 46.4417H74.0449L83.5519 0.5H94.5449L104.545 29.5L123.045 0.5H137.045L128.084 46.5L116.045 46.4417L122.045 19.5L105.545 46.4417L99.5449 46.5L91.0449 19.5L86.0537 46.4417Z" fill="#524BB0"/>
<path d="M94.9014 0L104.68 28.3574L122.771 0H137.651L137.536 0.595703L128.496 47.002L115.422 46.9385L120.904 22.3193L105.827 46.9395L105.55 46.9414L99.1797 47.0039L91.1699 21.5635L86.4697 46.9414H73.4307L73.5557 46.3408L83.0625 0.398438L83.1445 0H94.9014ZM74.6582 45.9414H85.6387L90.5537 19.4092L91.5215 19.3496L99.9102 45.9961L105.263 45.9434L121.618 19.2393L122.533 19.6084L116.668 45.9443L127.673 45.9971L136.438 1H123.319L104.41 30.6416L94.1885 1H83.959L74.6582 45.9414Z" fill="#524BB0"/>
<path d="M41.0449 9.5H26.5449L27.5449 4L0.0449219 1.5L28.5449 0.5H70.0449L68.5449 9.5H52.5449L45.0449 46.5H32.5449L1.54492 43.5L34.1567 40.5894L35.2705 34.5L14.0449 31L36.7705 29L38.0449 23L7.04492 19.5L39.0449 16.5L41.0449 9.5Z" fill="black"/>
<path d="M70.6348 0L68.9688 10H52.9541L45.4541 47H32.5205L32.4971 46.998L1.49707 43.998L1.5 43.002L33.7324 40.125L34.6865 34.9102L13.9639 31.4932L14.001 30.502L36.3574 28.5342L37.4404 23.4346L6.98926 19.9971L6.99805 19.002L38.6582 16.0332L40.3818 10H25.9463L26.0527 9.41016L26.9541 4.44824L0 1.99805L0.0273438 1L28.5273 0H70.6348ZM8.00293 1.7207L28.1348 3.55176L27.1445 9H41.708L39.4316 16.9658L39.0918 16.998L11.9111 19.5459L38.1006 22.5029L38.6484 22.5654L37.1826 29.4658L18.0322 31.1504L35.8535 34.0898L35.7627 34.5898L34.5801 41.0537L6.94629 43.5195L32.5723 46H44.6357L52.1357 9H68.1211L69.4551 1H28.5625L8.00293 1.7207Z" fill="black"/>
<path d="M56.5449 25.4988L51.5449 22.4987C53.0449 20.4987 57.0686 18.0106 58.5686 17.5107C60.0687 17.0108 65.5686 15.5107 69.5686 17.5107C73.0449 19.2489 74.0449 22.1988 74.0449 24.9988C74.0449 27.7988 72.5449 29.9988 71.5449 30.9988L59.5449 40.9988H72.0449L71.0449 46.4988H49.0449L50.0449 40.9988C54.0449 37.9988 62.4607 30.9875 64.5449 29.4988C68.0449 26.9988 69.5686 22.4987 63.0449 22.4988C59.0449 22.4988 57.5449 24.4988 56.5449 25.4988Z" fill="#1A1836"/>
<path d="M73.5449 24.9991C73.5449 22.3302 72.6051 19.5883 69.3447 17.9581C67.4644 17.018 65.1977 16.8877 63.1768 17.0714C61.1636 17.2544 59.4522 17.7436 58.7266 17.9855C58.0427 18.2134 56.7073 18.9292 55.3369 19.8566C54.1731 20.6441 53.0446 21.5463 52.3027 22.3702L56.4609 24.8653C56.9125 24.3928 57.5312 23.7466 58.4053 23.2003C59.487 22.5242 60.954 21.9991 63.0449 21.9991C64.7203 21.9991 65.9583 22.286 66.793 22.8204C67.6569 23.3736 68.0555 24.1733 68.0537 25.0626C68.0519 25.9189 67.6814 26.8138 67.1162 27.6339C66.5464 28.4607 65.752 29.251 64.8359 29.9054C63.8096 30.6385 61.2012 32.7498 58.3271 35.0714C55.5397 37.3231 52.5135 39.761 50.502 41.2784L49.6445 45.9991H70.627L71.4453 41.4991H58.1641L71.208 30.6271C72.1476 29.6793 73.5448 27.6094 73.5449 24.9991ZM74.5449 24.9991C74.5448 27.9725 72.9587 30.2924 71.8984 31.3526L71.8828 31.3683L60.9258 40.4991H72.6436L72.5371 41.088L71.5371 46.588L71.4619 46.9991H48.4463L48.5527 46.4093L49.5879 40.7169L49.7451 40.5987C51.7362 39.1054 54.8319 36.6093 57.6992 34.2931C60.5539 31.9871 63.1959 29.8476 64.2539 29.0919C65.0877 28.4963 65.7967 27.7865 66.293 27.0665C66.7937 26.34 67.0524 25.6417 67.0537 25.0607C67.0548 24.5124 66.8297 24.0309 66.2539 23.6622C65.6488 23.2748 64.6313 22.9991 63.0449 22.9991C61.1359 22.9991 59.8528 23.474 58.9346 24.048C57.9978 24.6335 57.4312 25.3198 56.8984 25.8526L56.6221 26.128L50.8125 22.6427L51.1445 22.1983C51.9463 21.1294 53.3849 19.9701 54.7764 19.0284C56.1675 18.087 57.5939 17.3083 58.4102 17.0362C59.1846 16.7781 60.9741 16.2673 63.0859 16.0753C65.1897 15.884 67.6725 16.0039 69.792 17.0636C73.4842 18.9097 74.5449 22.068 74.5449 24.9991Z" fill="#1A1836"/>
</svg>
